# xmcd
#
# Track frame offsets:
#	150
#	9315
#	23947
#	38575
#	53965
#	65835
#	87455
#	99610
#	118885
#	131405
#	144322
#	164592
#	178750
#	198842
#
# Disc length: 3269 seconds
# Revision: 7
# Processed by: cddbd v1.5.2PL0 Copyright (c) Steve Scherf et al.
# Submitted via: dBpowerAMP V12.0
#
DISCID=c30cc30e
DTITLE=The Chieftains - Down the Old Plank Road - The Nashville Sessions
DYEAR=2002
DGENRE=Celtic
TTITLE0=Down the Old Plank Road
TTITLE1=Country Blues
TTITLE2=Sally Goodin
TTITLE3=Dark As a Dungeon
TTITLE4=Cindy
TTITLE5=Molly Bán (Bawn)
TTITLE6=Don't Let Your Deal Go Down
TTITLE7=Ladies Pantalettes - Belles of Blackville - First House in Connaught
TTITLE8=Whole Heap of Little Horses
TTITLE9=Rain and Snow
TTITLE10=I'll Be All Smiles Tonight
TTITLE11=Tennessee Stud
TTITLE12=Katie Dear
TTITLE13=Give the Fiddler a Dram (Finale)
EXTD=
EXTT0=
EXTT1=
EXTT2=
EXTT3=
EXTT4=
EXTT5=
EXTT6=
EXTT7=
EXTT8=
EXTT9=
EXTT10=
EXTT11=
EXTT12=
EXTT13=
PLAYORDER=
